<?xml version="1.0" encoding="UTF-8" standalone="no"?>
<!DOCTYPE svg PUBLIC "-//W3C//DTD SVG 1.1//EN"
 "http://www.w3.org/Graphics/SVG/1.1/DTD/svg11.dtd">
<!-- Generated by graphviz version 2.43.0 (0)
 -->
<!-- Title: G Pages: 1 -->
<svg width="2582pt" height="1012pt"
 viewBox="0.00 0.00 2582.00 1012.00" xmlns="http://www.w3.org/2000/svg" xmlns:xlink="http://www.w3.org/1999/xlink">
<g id="graph0" class="graph" transform="scale(1 1) rotate(0) translate(4 1008)">
<title>G</title>
<polygon fill="white" stroke="transparent" points="-4,4 -4,-1008 2578,-1008 2578,4 -4,4"/>
<!-- data.archive_file.lambda_auditoria_zip -->
<g id="node1" class="node">
<title>data.archive_file.lambda_auditoria_zip</title>
<polygon fill="none" stroke="black" points="586,-788 322,-788 322,-752 586,-752 586,-788"/>
<text text-anchor="middle" x="454" y="-766.3" font-family="sans-serif" font-size="14.00">data.archive_file.lambda_auditoria_zip</text>
</g>
<!-- data.archive_file.lambda_registrar_zip -->
<g id="node2" class="node">
<title>data.archive_file.lambda_registrar_zip</title>
<polygon fill="none" stroke="black" points="584.5,-642 323.5,-642 323.5,-606 584.5,-606 584.5,-642"/>
<text text-anchor="middle" x="454" y="-620.3" font-family="sans-serif" font-size="14.00">data.archive_file.lambda_registrar_zip</text>
</g>
<!-- data.archive_file.lambda_zip -->
<g id="node3" class="node">
<title>data.archive_file.lambda_zip</title>
<polygon fill="none" stroke="black" points="553.5,-134 354.5,-134 354.5,-98 553.5,-98 553.5,-134"/>
<text text-anchor="middle" x="454" y="-112.3" font-family="sans-serif" font-size="14.00">data.archive_file.lambda_zip</text>
</g>
<!-- aws_api_gateway_api_key.auditoria_key -->
<g id="node4" class="node">
<title>aws_api_gateway_api_key.auditoria_key</title>
<polygon fill="none" stroke="black" points="2159.5,-803 1886.5,-803 1886.5,-767 2159.5,-767 2159.5,-803"/>
<text text-anchor="middle" x="2023" y="-781.3" font-family="sans-serif" font-size="14.00">aws_api_gateway_api_key.auditoria_key</text>
</g>
<!-- aws_api_gateway_api_key.rrhh_key -->
<g id="node5" class="node">
<title>aws_api_gateway_api_key.rrhh_key</title>
<polygon fill="none" stroke="black" points="2145,-611 1901,-611 1901,-575 2145,-575 2145,-611"/>
<text text-anchor="middle" x="2023" y="-589.3" font-family="sans-serif" font-size="14.00">aws_api_gateway_api_key.rrhh_key</text>
</g>
<!-- aws_api_gateway_deployment.auditoria_deployment -->
<g id="node6" class="node">
<title>aws_api_gateway_deployment.auditoria_deployment</title>
<polygon fill="none" stroke="black" points="1834,-857 1472,-857 1472,-821 1834,-821 1834,-857"/>
<text text-anchor="middle" x="1653" y="-835.3" font-family="sans-serif" font-size="14.00">aws_api_gateway_deployment.auditoria_deployment</text>
</g>
<!-- aws_api_gateway_integration.auditoria_lambda -->
<g id="node9" class="node">
<title>aws_api_gateway_integration.auditoria_lambda</title>
<polygon fill="none" stroke="black" points="1430,-857 1105,-857 1105,-821 1430,-821 1430,-857"/>
<text text-anchor="middle" x="1267.5" y="-835.3" font-family="sans-serif" font-size="14.00">aws_api_gateway_integration.auditoria_lambda</text>
</g>
<!-- aws_api_gateway_deployment.auditoria_deployment&#45;&gt;aws_api_gateway_integration.auditoria_lambda -->
<g id="edge1" class="edge">
<title>aws_api_gateway_deployment.auditoria_deployment&#45;&gt;aws_api_gateway_integration.auditoria_lambda</title>
<path fill="none" stroke="black" d="M1471.76,-839C1461.22,-839 1450.64,-839 1440.14,-839"/>
<polygon fill="black" stroke="black" points="1440.1,-835.5 1430.1,-839 1440.1,-842.5 1440.1,-835.5"/>
</g>
<!-- aws_api_gateway_deployment.deployment -->
<g id="node7" class="node">
<title>aws_api_gateway_deployment.deployment</title>
<polygon fill="none" stroke="black" points="1801.5,-117 1504.5,-117 1504.5,-81 1801.5,-81 1801.5,-117"/>
<text text-anchor="middle" x="1653" y="-95.3" font-family="sans-serif" font-size="14.00">aws_api_gateway_deployment.deployment</text>
</g>
<!-- aws_api_gateway_integration.lambda -->
<g id="node10" class="node">
<title>aws_api_gateway_integration.lambda</title>
<polygon fill="none" stroke="black" points="1397.5,-144 1137.5,-144 1137.5,-108 1397.5,-108 1397.5,-144"/>
<text text-anchor="middle" x="1267.5" y="-122.3" font-family="sans-serif" font-size="14.00">aws_api_gateway_integration.lambda</text>
</g>
<!-- aws_api_gateway_deployment.deployment&#45;&gt;aws_api_gateway_integration.lambda -->
<g id="edge2" class="edge">
<title>aws_api_gateway_deployment.deployment&#45;&gt;aws_api_gateway_integration.lambda</title>
<path fill="none" stroke="black" d="M1504.28,-109.4C1472.58,-111.63 1439.18,-113.98 1407.81,-116.19"/>
<polygon fill="black" stroke="black" points="1407.43,-112.71 1397.7,-116.9 1407.92,-119.69 1407.43,-112.71"/>
</g>
<!-- aws_api_gateway_integration.options -->
<g id="node11" class="node">
<title>aws_api_gateway_integration.options</title>
<polygon fill="none" stroke="black" points="1398,-36 1137,-36 1137,0 1398,0 1398,-36"/>
<text text-anchor="middle" x="1267.5" y="-14.3" font-family="sans-serif" font-size="14.00">aws_api_gateway_integration.options</text>
</g>
<!-- aws_api_gateway_deployment.deployment&#45;&gt;aws_api_gateway_integration.options -->
<g id="edge3" class="edge">
<title>aws_api_gateway_deployment.deployment&#45;&gt;aws_api_gateway_integration.options</title>
<path fill="none" stroke="black" d="M1586.16,-80.99C1543.54,-69.72 1486.74,-55.41 1436,-45 1423.82,-42.5 1411.1,-40.09 1398.35,-37.81"/>
<polygon fill="black" stroke="black" points="1398.59,-34.3 1388.13,-36.01 1397.38,-41.19 1398.59,-34.3"/>
</g>
<!-- aws_api_gateway_deployment.rrhh_deployment -->
<g id="node8" class="node">
<title>aws_api_gateway_deployment.rrhh_deployment</title>
<polygon fill="none" stroke="black" points="1819.5,-665 1486.5,-665 1486.5,-629 1819.5,-629 1819.5,-665"/>
<text text-anchor="middle" x="1653" y="-643.3" font-family="sans-serif" font-size="14.00">aws_api_gateway_deployment.rrhh_deployment</text>
</g>
<!-- aws_api_gateway_integration.rrhh_lambda -->
<g id="node12" class="node">
<title>aws_api_gateway_integration.rrhh_lambda</title>
<polygon fill="none" stroke="black" points="1415.5,-665 1119.5,-665 1119.5,-629 1415.5,-629 1415.5,-665"/>
<text text-anchor="middle" x="1267.5" y="-643.3" font-family="sans-serif" font-size="14.00">aws_api_gateway_integration.rrhh_lambda</text>
</g>
<!-- aws_api_gateway_deployment.rrhh_deployment&#45;&gt;aws_api_gateway_integration.rrhh_lambda -->
<g id="edge4" class="edge">
<title>aws_api_gateway_deployment.rrhh_deployment&#45;&gt;aws_api_gateway_integration.rrhh_lambda</title>
<path fill="none" stroke="black" d="M1486.3,-647C1466.2,-647 1445.71,-647 1425.73,-647"/>
<polygon fill="black" stroke="black" points="1425.66,-643.5 1415.66,-647 1425.66,-650.5 1425.66,-643.5"/>
</g>
<!-- aws_api_gateway_method.auditoria_get -->
<g id="node14" class="node">
<title>aws_api_gateway_method.auditoria_get</title>
<polygon fill="none" stroke="black" points="987,-977 710,-977 710,-941 987,-941 987,-977"/>
<text text-anchor="middle" x="848.5" y="-955.3" font-family="sans-serif" font-size="14.00">aws_api_gateway_method.auditoria_get</text>
</g>
<!-- aws_api_gateway_integration.auditoria_lambda&#45;&gt;aws_api_gateway_method.auditoria_get -->
<g id="edge5" class="edge">
<title>aws_api_gateway_integration.auditoria_lambda&#45;&gt;aws_api_gateway_method.auditoria_get</title>
<path fill="none" stroke="black" d="M1203.62,-857.1C1128.12,-878.82 1001.76,-915.19 922.16,-938.09"/>
<polygon fill="black" stroke="black" points="920.85,-934.83 912.21,-940.95 922.79,-941.55 920.85,-934.83"/>
</g>
<!-- aws_lambda_function.auditoria -->
<g id="node41" class="node">
<title>aws_lambda_function.auditoria</title>
<polygon fill="none" stroke="black" points="959,-788 738,-788 738,-752 959,-752 959,-788"/>
<text text-anchor="middle" x="848.5" y="-766.3" font-family="sans-serif" font-size="14.00">aws_lambda_function.auditoria</text>
</g>
<!-- aws_api_gateway_integration.auditoria_lambda&#45;&gt;aws_lambda_function.auditoria -->
<g id="edge6" class="edge">
<title>aws_api_gateway_integration.auditoria_lambda&#45;&gt;aws_lambda_function.auditoria</title>
<path fill="none" stroke="black" d="M1157.48,-820.96C1099.54,-811.37 1028.21,-799.57 968.79,-789.74"/>
<polygon fill="black" stroke="black" points="969.04,-786.23 958.6,-788.05 967.9,-793.14 969.04,-786.23"/>
</g>
<!-- aws_api_gateway_method.post -->
<g id="node16" class="node">
<title>aws_api_gateway_method.post</title>
<polygon fill="none" stroke="black" points="957.5,-134 739.5,-134 739.5,-98 957.5,-98 957.5,-134"/>
<text text-anchor="middle" x="848.5" y="-112.3" font-family="sans-serif" font-size="14.00">aws_api_gateway_method.post</text>
</g>
<!-- aws_api_gateway_integration.lambda&#45;&gt;aws_api_gateway_method.post -->
<g id="edge7" class="edge">
<title>aws_api_gateway_integration.lambda&#45;&gt;aws_api_gateway_method.post</title>
<path fill="none" stroke="black" d="M1137.41,-122.9C1083.26,-121.61 1020.7,-120.11 967.76,-118.84"/>
<polygon fill="black" stroke="black" points="967.73,-115.33 957.65,-118.59 967.56,-122.33 967.73,-115.33"/>
</g>
<!-- aws_lambda_function.validacion_biometrica -->
<g id="node43" class="node">
<title>aws_lambda_function.validacion_biometrica</title>
<polygon fill="none" stroke="black" points="1000,-188 697,-188 697,-152 1000,-152 1000,-188"/>
<text text-anchor="middle" x="848.5" y="-166.3" font-family="sans-serif" font-size="14.00">aws_lambda_function.validacion_biometrica</text>
</g>
<!-- aws_api_gateway_integration.lambda&#45;&gt;aws_lambda_function.validacion_biometrica -->
<g id="edge8" class="edge">
<title>aws_api_gateway_integration.lambda&#45;&gt;aws_lambda_function.validacion_biometrica</title>
<path fill="none" stroke="black" d="M1137.41,-139.62C1097.22,-143.86 1052.4,-148.59 1010.32,-153.03"/>
<polygon fill="black" stroke="black" points="1009.83,-149.56 1000.25,-154.09 1010.57,-156.52 1009.83,-149.56"/>
</g>
<!-- aws_api_gateway_method.options -->
<g id="node15" class="node">
<title>aws_api_gateway_method.options</title>
<polygon fill="none" stroke="black" points="968,-80 729,-80 729,-44 968,-44 968,-80"/>
<text text-anchor="middle" x="848.5" y="-58.3" font-family="sans-serif" font-size="14.00">aws_api_gateway_method.options</text>
</g>
<!-- aws_api_gateway_integration.options&#45;&gt;aws_api_gateway_method.options -->
<g id="edge9" class="edge">
<title>aws_api_gateway_integration.options&#45;&gt;aws_api_gateway_method.options</title>
<path fill="none" stroke="black" d="M1136.84,-31.68C1086.3,-37.01 1028.51,-43.11 978.07,-48.43"/>
<polygon fill="black" stroke="black" points="977.66,-44.96 968.08,-49.49 978.39,-51.92 977.66,-44.96"/>
</g>
<!-- aws_api_gateway_method.rrhh_post -->
<g id="node17" class="node">
<title>aws_api_gateway_method.rrhh_post</title>
<polygon fill="none" stroke="black" points="975.5,-696 721.5,-696 721.5,-660 975.5,-660 975.5,-696"/>
<text text-anchor="middle" x="848.5" y="-674.3" font-family="sans-serif" font-size="14.00">aws_api_gateway_method.rrhh_post</text>
</g>
<!-- aws_api_gateway_integration.rrhh_lambda&#45;&gt;aws_api_gateway_method.rrhh_post -->
<g id="edge10" class="edge">
<title>aws_api_gateway_integration.rrhh_lambda&#45;&gt;aws_api_gateway_method.rrhh_post</title>
<path fill="none" stroke="black" d="M1119.48,-657.93C1076.06,-661.16 1028.74,-664.68 986.02,-667.85"/>
<polygon fill="black" stroke="black" points="985.55,-664.38 975.83,-668.61 986.07,-671.36 985.55,-664.38"/>
</g>
<!-- aws_lambda_function.registrar_empleado -->
<g id="node42" class="node">
<title>aws_lambda_function.registrar_empleado</title>
<polygon fill="none" stroke="black" points="993,-642 704,-642 704,-606 993,-606 993,-642"/>
<text text-anchor="middle" x="848.5" y="-620.3" font-family="sans-serif" font-size="14.00">aws_lambda_function.registrar_empleado</text>
</g>
<!-- aws_api_gateway_integration.rrhh_lambda&#45;&gt;aws_lambda_function.registrar_empleado -->
<g id="edge11" class="edge">
<title>aws_api_gateway_integration.rrhh_lambda&#45;&gt;aws_lambda_function.registrar_empleado</title>
<path fill="none" stroke="black" d="M1119.48,-638.89C1081.81,-636.81 1041.2,-634.57 1003.21,-632.48"/>
<polygon fill="black" stroke="black" points="1003.27,-628.98 993.09,-631.92 1002.88,-635.97 1003.27,-628.98"/>
</g>
<!-- aws_api_gateway_integration_response.options -->
<g id="node13" class="node">
<title>aws_api_gateway_integration_response.options</title>
<polygon fill="none" stroke="black" points="1817,-36 1489,-36 1489,0 1817,0 1817,-36"/>
<text text-anchor="middle" x="1653" y="-14.3" font-family="sans-serif" font-size="14.00">aws_api_gateway_integration_response.options</text>
</g>
<!-- aws_api_gateway_integration_response.options&#45;&gt;aws_api_gateway_integration.options -->
<g id="edge12" class="edge">
<title>aws_api_gateway_integration_response.options&#45;&gt;aws_api_gateway_integration.options</title>
<path fill="none" stroke="black" d="M1488.81,-18C1462.08,-18 1434.6,-18 1408.5,-18"/>
<polygon fill="black" stroke="black" points="1408.18,-14.5 1398.18,-18 1408.18,-21.5 1408.18,-14.5"/>
</g>
<!-- aws_api_gateway_resource.auditoria_root -->
<g id="node19" class="node">
<title>aws_api_gateway_resource.auditoria_root</title>
<polygon fill="none" stroke="black" points="598,-1004 310,-1004 310,-968 598,-968 598,-1004"/>
<text text-anchor="middle" x="454" y="-982.3" font-family="sans-serif" font-size="14.00">aws_api_gateway_resource.auditoria_root</text>
</g>
<!-- aws_api_gateway_method.auditoria_get&#45;&gt;aws_api_gateway_resource.auditoria_root -->
<g id="edge13" class="edge">
<title>aws_api_gateway_method.auditoria_get&#45;&gt;aws_api_gateway_resource.auditoria_root</title>
<path fill="none" stroke="black" d="M709.95,-968.46C677.1,-970.72 641.85,-973.15 608.34,-975.45"/>
<polygon fill="black" stroke="black" points="607.74,-971.98 598,-976.16 608.22,-978.97 607.74,-971.98"/>
</g>
<!-- aws_api_gateway_resource.root -->
<g id="node20" class="node">
<title>aws_api_gateway_resource.root</title>
<polygon fill="none" stroke="black" points="565.5,-80 342.5,-80 342.5,-44 565.5,-44 565.5,-80"/>
<text text-anchor="middle" x="454" y="-58.3" font-family="sans-serif" font-size="14.00">aws_api_gateway_resource.root</text>
</g>
<!-- aws_api_gateway_method.options&#45;&gt;aws_api_gateway_resource.root -->
<g id="edge14" class="edge">
<title>aws_api_gateway_method.options&#45;&gt;aws_api_gateway_resource.root</title>
<path fill="none" stroke="black" d="M728.94,-62C680.48,-62 624.49,-62 575.8,-62"/>
<polygon fill="black" stroke="black" points="575.53,-58.5 565.53,-62 575.53,-65.5 575.53,-58.5"/>
</g>
<!-- aws_api_gateway_method.post&#45;&gt;aws_api_gateway_resource.root -->
<g id="edge15" class="edge">
<title>aws_api_gateway_method.post&#45;&gt;aws_api_gateway_resource.root</title>
<path fill="none" stroke="black" d="M739.37,-102.83C705.6,-98.59 668.23,-93.75 634,-89 615.18,-86.39 595.26,-83.51 575.82,-80.63"/>
<polygon fill="black" stroke="black" points="576.11,-77.13 565.7,-79.12 575.08,-84.05 576.11,-77.13"/>
</g>
<!-- aws_api_gateway_resource.rrhh_root -->
<g id="node21" class="node">
<title>aws_api_gateway_resource.rrhh_root</title>
<polygon fill="none" stroke="black" points="583.5,-696 324.5,-696 324.5,-660 583.5,-660 583.5,-696"/>
<text text-anchor="middle" x="454" y="-674.3" font-family="sans-serif" font-size="14.00">aws_api_gateway_resource.rrhh_root</text>
</g>
<!-- aws_api_gateway_method.rrhh_post&#45;&gt;aws_api_gateway_resource.rrhh_root -->
<g id="edge16" class="edge">
<title>aws_api_gateway_method.rrhh_post&#45;&gt;aws_api_gateway_resource.rrhh_root</title>
<path fill="none" stroke="black" d="M721.42,-678C680.73,-678 635.4,-678 593.84,-678"/>
<polygon fill="black" stroke="black" points="593.64,-674.5 583.64,-678 593.64,-681.5 593.64,-674.5"/>
</g>
<!-- aws_api_gateway_method_response.options_200 -->
<g id="node18" class="node">
<title>aws_api_gateway_method_response.options_200</title>
<polygon fill="none" stroke="black" points="1436,-90 1099,-90 1099,-54 1436,-54 1436,-90"/>
<text text-anchor="middle" x="1267.5" y="-68.3" font-family="sans-serif" font-size="14.00">aws_api_gateway_method_response.options_200</text>
</g>
<!-- aws_api_gateway_method_response.options_200&#45;&gt;aws_api_gateway_method.options -->
<g id="edge17" class="edge">
<title>aws_api_gateway_method_response.options_200&#45;&gt;aws_api_gateway_method.options</title>
<path fill="none" stroke="black" d="M1098.99,-67.98C1058.77,-67.02 1016.43,-66 978.28,-65.09"/>
<polygon fill="black" stroke="black" points="978.23,-61.59 968.15,-64.85 978.07,-68.58 978.23,-61.59"/>
</g>
<!-- aws_api_gateway_rest_api.api_auditoria -->
<g id="node23" class="node">
<title>aws_api_gateway_rest_api.api_auditoria</title>
<polygon fill="none" stroke="black" points="274,-809 0,-809 0,-773 274,-773 274,-809"/>
<text text-anchor="middle" x="137" y="-787.3" font-family="sans-serif" font-size="14.00">aws_api_gateway_rest_api.api_auditoria</text>
</g>
<!-- aws_api_gateway_resource.auditoria_root&#45;&gt;aws_api_gateway_rest_api.api_auditoria -->
<g id="edge18" class="edge">
<title>aws_api_gateway_resource.auditoria_root&#45;&gt;aws_api_gateway_rest_api.api_auditoria</title>
<path fill="none" stroke="black" d="M330.42,-967.94C323.36,-965.35 316.5,-962.38 310,-959 243.51,-924.37 185.65,-855.64 157.05,-817.7"/>
<polygon fill="black" stroke="black" points="159.51,-815.15 150.74,-809.21 153.89,-819.32 159.51,-815.15"/>
</g>
<!-- aws_api_gateway_rest_api.api -->
<g id="node22" class="node">
<title>aws_api_gateway_rest_api.api</title>
<polygon fill="none" stroke="black" points="241.5,-157 32.5,-157 32.5,-121 241.5,-121 241.5,-157"/>
<text text-anchor="middle" x="137" y="-135.3" font-family="sans-serif" font-size="14.00">aws_api_gateway_rest_api.api</text>
</g>
<!-- aws_api_gateway_resource.root&#45;&gt;aws_api_gateway_rest_api.api -->
<g id="edge19" class="edge">
<title>aws_api_gateway_resource.root&#45;&gt;aws_api_gateway_rest_api.api</title>
<path fill="none" stroke="black" d="M350.8,-80.05C337.04,-82.85 323.15,-85.86 310,-89 274.92,-97.39 236.31,-108.44 204.58,-118.02"/>
<polygon fill="black" stroke="black" points="203.52,-114.69 194.97,-120.94 205.55,-121.39 203.52,-114.69"/>
</g>
<!-- aws_api_gateway_rest_api.api_rrhh -->
<g id="node24" class="node">
<title>aws_api_gateway_rest_api.api_rrhh</title>
<polygon fill="none" stroke="black" points="259.5,-628 14.5,-628 14.5,-592 259.5,-592 259.5,-628"/>
<text text-anchor="middle" x="137" y="-606.3" font-family="sans-serif" font-size="14.00">aws_api_gateway_rest_api.api_rrhh</text>
</g>
<!-- aws_api_gateway_resource.rrhh_root&#45;&gt;aws_api_gateway_rest_api.api_rrhh -->
<g id="edge20" class="edge">
<title>aws_api_gateway_resource.rrhh_root&#45;&gt;aws_api_gateway_rest_api.api_rrhh</title>
<path fill="none" stroke="black" d="M354.03,-659.94C339.25,-657.07 324.21,-654.03 310,-651 280.59,-644.72 248.51,-637.25 220.1,-630.41"/>
<polygon fill="black" stroke="black" points="220.76,-626.97 210.22,-628.02 219.12,-633.77 220.76,-626.97"/>
</g>
<!-- aws_api_gateway_usage_plan.auditoria_plan -->
<g id="node25" class="node">
<title>aws_api_gateway_usage_plan.auditoria_plan</title>
<polygon fill="none" stroke="black" points="2176,-857 1870,-857 1870,-821 2176,-821 2176,-857"/>
<text text-anchor="middle" x="2023" y="-835.3" font-family="sans-serif" font-size="14.00">aws_api_gateway_usage_plan.auditoria_plan</text>
</g>
<!-- aws_api_gateway_usage_plan.auditoria_plan&#45;&gt;aws_api_gateway_deployment.auditoria_deployment -->
<g id="edge21" class="edge">
<title>aws_api_gateway_usage_plan.auditoria_plan&#45;&gt;aws_api_gateway_deployment.auditoria_deployment</title>
<path fill="none" stroke="black" d="M1869.93,-839C1861.47,-839 1852.91,-839 1844.34,-839"/>
<polygon fill="black" stroke="black" points="1844.27,-835.5 1834.27,-839 1844.27,-842.5 1844.27,-835.5"/>
</g>
<!-- aws_api_gateway_usage_plan.rrhh_plan -->
<g id="node26" class="node">
<title>aws_api_gateway_usage_plan.rrhh_plan</title>
<polygon fill="none" stroke="black" points="2161.5,-665 1884.5,-665 1884.5,-629 2161.5,-629 2161.5,-665"/>
<text text-anchor="middle" x="2023" y="-643.3" font-family="sans-serif" font-size="14.00">aws_api_gateway_usage_plan.rrhh_plan</text>
</g>
<!-- aws_api_gateway_usage_plan.rrhh_plan&#45;&gt;aws_api_gateway_deployment.rrhh_deployment -->
<g id="edge22" class="edge">
<title>aws_api_gateway_usage_plan.rrhh_plan&#45;&gt;aws_api_gateway_deployment.rrhh_deployment</title>
<path fill="none" stroke="black" d="M1884.45,-647C1866.62,-647 1848.17,-647 1829.83,-647"/>
<polygon fill="black" stroke="black" points="1829.65,-643.5 1819.65,-647 1829.65,-650.5 1829.65,-643.5"/>
</g>
<!-- aws_api_gateway_usage_plan_key.auditoria_plan_key -->
<g id="node27" class="node">
<title>aws_api_gateway_usage_plan_key.auditoria_plan_key</title>
<polygon fill="none" stroke="black" points="2574,-830 2212,-830 2212,-794 2574,-794 2574,-830"/>
<text text-anchor="middle" x="2393" y="-808.3" font-family="sans-serif" font-size="14.00">aws_api_gateway_usage_plan_key.auditoria_plan_key</text>
</g>
<!-- aws_api_gateway_usage_plan_key.auditoria_plan_key&#45;&gt;aws_api_gateway_api_key.auditoria_key -->
<g id="edge23" class="edge">
<title>aws_api_gateway_usage_plan_key.auditoria_plan_key&#45;&gt;aws_api_gateway_api_key.auditoria_key</title>
<path fill="none" stroke="black" d="M2211.77,-798.78C2197.63,-797.74 2183.46,-796.7 2169.59,-795.68"/>
<polygon fill="black" stroke="black" points="2169.79,-792.19 2159.56,-794.95 2169.27,-799.17 2169.79,-792.19"/>
</g>
<!-- aws_api_gateway_usage_plan_key.auditoria_plan_key&#45;&gt;aws_api_gateway_usage_plan.auditoria_plan -->
<g id="edge24" class="edge">
<title>aws_api_gateway_usage_plan_key.auditoria_plan_key&#45;&gt;aws_api_gateway_usage_plan.auditoria_plan</title>
<path fill="none" stroke="black" d="M2211.77,-825.22C2203.29,-825.85 2194.8,-826.47 2186.37,-827.09"/>
<polygon fill="black" stroke="black" points="2185.84,-823.62 2176.13,-827.84 2186.36,-830.6 2185.84,-823.62"/>
</g>
<!-- aws_api_gateway_usage_plan_key.rrhh_plan_key -->
<g id="node28" class="node">
<title>aws_api_gateway_usage_plan_key.rrhh_plan_key</title>
<polygon fill="none" stroke="black" points="2559.5,-638 2226.5,-638 2226.5,-602 2559.5,-602 2559.5,-638"/>
<text text-anchor="middle" x="2393" y="-616.3" font-family="sans-serif" font-size="14.00">aws_api_gateway_usage_plan_key.rrhh_plan_key</text>
</g>
<!-- aws_api_gateway_usage_plan_key.rrhh_plan_key&#45;&gt;aws_api_gateway_api_key.rrhh_key -->
<g id="edge25" class="edge">
<title>aws_api_gateway_usage_plan_key.rrhh_plan_key&#45;&gt;aws_api_gateway_api_key.rrhh_key</title>
<path fill="none" stroke="black" d="M2226.3,-607.84C2202.54,-606.1 2178.36,-604.33 2155.38,-602.64"/>
<polygon fill="black" stroke="black" points="2155.49,-599.14 2145.26,-601.9 2154.98,-606.12 2155.49,-599.14"/>
</g>
<!-- aws_api_gateway_usage_plan_key.rrhh_plan_key&#45;&gt;aws_api_gateway_usage_plan.rrhh_plan -->
<g id="edge26" class="edge">
<title>aws_api_gateway_usage_plan_key.rrhh_plan_key&#45;&gt;aws_api_gateway_usage_plan.rrhh_plan</title>
<path fill="none" stroke="black" d="M2226.3,-632.16C2208.12,-633.49 2189.69,-634.84 2171.74,-636.16"/>
<polygon fill="black" stroke="black" points="2171.25,-632.69 2161.53,-636.91 2171.76,-639.67 2171.25,-632.69"/>
</g>
<!-- aws_cloudfront_distribution.frontend -->
<g id="node29" class="node">
<title>aws_cloudfront_distribution.frontend</title>
<polygon fill="none" stroke="black" points="1398,-334 1137,-334 1137,-298 1398,-298 1398,-334"/>
<text text-anchor="middle" x="1267.5" y="-312.3" font-family="sans-serif" font-size="14.00">aws_cloudfront_distribution.frontend</text>
</g>
<!-- aws_s3_bucket_website_configuration.frontend -->
<g id="node52" class="node">
<title>aws_s3_bucket_website_configuration.frontend</title>
<polygon fill="none" stroke="black" points="1012.5,-334 684.5,-334 684.5,-298 1012.5,-298 1012.5,-334"/>
<text text-anchor="middle" x="848.5" y="-312.3" font-family="sans-serif" font-size="14.00">aws_s3_bucket_website_configuration.frontend</text>
</g>
<!-- aws_cloudfront_distribution.frontend&#45;&gt;aws_s3_bucket_website_configuration.frontend -->
<g id="edge27" class="edge">
<title>aws_cloudfront_distribution.frontend&#45;&gt;aws_s3_bucket_website_configuration.frontend</title>
<path fill="none" stroke="black" d="M1136.84,-316C1100.74,-316 1060.94,-316 1022.76,-316"/>
<polygon fill="black" stroke="black" points="1022.57,-312.5 1012.57,-316 1022.57,-319.5 1022.57,-312.5"/>
</g>
<!-- aws_cognito_user_pool.biosecurity -->
<g id="node30" class="node">
<title>aws_cognito_user_pool.biosecurity</title>
<polygon fill="none" stroke="black" points="2145.5,-911 1900.5,-911 1900.5,-875 2145.5,-875 2145.5,-911"/>
<text text-anchor="middle" x="2023" y="-889.3" font-family="sans-serif" font-size="14.00">aws_cognito_user_pool.biosecurity</text>
</g>
<!-- aws_cognito_user_pool_client.biosecurity_client -->
<g id="node31" class="node">
<title>aws_cognito_user_pool_client.biosecurity_client</title>
<polygon fill="none" stroke="black" points="2558.5,-911 2227.5,-911 2227.5,-875 2558.5,-875 2558.5,-911"/>
<text text-anchor="middle" x="2393" y="-889.3" font-family="sans-serif" font-size="14.00">aws_cognito_user_pool_client.biosecurity_client</text>
</g>
<!-- aws_cognito_user_pool_client.biosecurity_client&#45;&gt;aws_cognito_user_pool.biosecurity -->
<g id="edge28" class="edge">
<title>aws_cognito_user_pool_client.biosecurity_client&#45;&gt;aws_cognito_user_pool.biosecurity</title>
<path fill="none" stroke="black" d="M2227.37,-893C2203.45,-893 2179.09,-893 2155.93,-893"/>
<polygon fill="black" stroke="black" points="2155.73,-889.5 2145.73,-893 2155.73,-896.5 2155.73,-889.5"/>
</g>
<!-- aws_dynamodb_table.accesos -->
<g id="node32" class="node">
<title>aws_dynamodb_table.accesos</title>
<polygon fill="none" stroke="black" points="560,-896 348,-896 348,-860 560,-860 560,-896"/>
<text text-anchor="middle" x="454" y="-874.3" font-family="sans-serif" font-size="14.00">aws_dynamodb_table.accesos</text>
</g>
<!-- aws_dynamodb_table.empleados -->
<g id="node33" class="node">
<title>aws_dynamodb_table.empleados</title>
<polygon fill="none" stroke="black" points="570.5,-842 337.5,-842 337.5,-806 570.5,-806 570.5,-842"/>
<text text-anchor="middle" x="454" y="-820.3" font-family="sans-serif" font-size="14.00">aws_dynamodb_table.empleados</text>
</g>
<!-- aws_dynamodb_table.retirados -->
<g id="node34" class="node">
<title>aws_dynamodb_table.retirados</title>
<polygon fill="none" stroke="black" points="563.5,-950 344.5,-950 344.5,-914 563.5,-914 563.5,-950"/>
<text text-anchor="middle" x="454" y="-928.3" font-family="sans-serif" font-size="14.00">aws_dynamodb_table.retirados</text>
</g>
<!-- aws_iam_role.lambda_role -->
<g id="node35" class="node">
<title>aws_iam_role.lambda_role</title>
<polygon fill="none" stroke="black" points="547.5,-588 360.5,-588 360.5,-552 547.5,-552 547.5,-588"/>
<text text-anchor="middle" x="454" y="-566.3" font-family="sans-serif" font-size="14.00">aws_iam_role.lambda_role</text>
</g>
<!-- aws_iam_role_policy.lambda_dynamo_policy -->
<g id="node36" class="node">
<title>aws_iam_role_policy.lambda_dynamo_policy</title>
<polygon fill="none" stroke="black" points="999.5,-869 697.5,-869 697.5,-833 999.5,-833 999.5,-869"/>
<text text-anchor="middle" x="848.5" y="-847.3" font-family="sans-serif" font-size="14.00">aws_iam_role_policy.lambda_dynamo_policy</text>
</g>
<!-- aws_iam_role_policy.lambda_dynamo_policy&#45;&gt;aws_dynamodb_table.accesos -->
<g id="edge29" class="edge">
<title>aws_iam_role_policy.lambda_dynamo_policy&#45;&gt;aws_dynamodb_table.accesos</title>
<path fill="none" stroke="black" d="M697.43,-861.32C655.24,-864.23 610.02,-867.34 570.2,-870.08"/>
<polygon fill="black" stroke="black" points="569.94,-866.58 560.2,-870.76 570.42,-873.57 569.94,-866.58"/>
</g>
<!-- aws_iam_role_policy.lambda_dynamo_policy&#45;&gt;aws_dynamodb_table.empleados -->
<g id="edge30" class="edge">
<title>aws_iam_role_policy.lambda_dynamo_policy&#45;&gt;aws_dynamodb_table.empleados</title>
<path fill="none" stroke="black" d="M697.43,-840.68C659.06,-838.04 618.18,-835.23 581.14,-832.68"/>
<polygon fill="black" stroke="black" points="581.02,-829.16 570.8,-831.97 580.54,-836.14 581.02,-829.16"/>
</g>
<!-- aws_iam_role_policy.lambda_dynamo_policy&#45;&gt;aws_dynamodb_table.retirados -->
<g id="edge31" class="edge">
<title>aws_iam_role_policy.lambda_dynamo_policy&#45;&gt;aws_dynamodb_table.retirados</title>
<path fill="none" stroke="black" d="M766.71,-869.05C717.92,-879.81 654.47,-893.56 598,-905 586.49,-907.33 574.44,-909.71 562.44,-912.03"/>
<polygon fill="black" stroke="black" points="561.53,-908.64 552.37,-913.97 562.86,-915.52 561.53,-908.64"/>
</g>
<!-- aws_iam_role_policy.lambda_dynamo_policy&#45;&gt;aws_iam_role.lambda_role -->
<g id="edge32" class="edge">
<title>aws_iam_role_policy.lambda_dynamo_policy&#45;&gt;aws_iam_role.lambda_role</title>
<path fill="none" stroke="black" d="M697.42,-836.32C673.57,-827.89 651.15,-815.38 634,-797 572.4,-730.95 661.59,-661.14 598,-597 586.91,-585.81 572.74,-578.48 557.65,-573.77"/>
<polygon fill="black" stroke="black" points="558.19,-570.29 547.62,-571.05 556.35,-577.05 558.19,-570.29"/>
</g>
<!-- aws_iam_role_policy.lambda_kms_policy -->
<g id="node37" class="node">
<title>aws_iam_role_policy.lambda_kms_policy</title>
<polygon fill="none" stroke="black" points="986.5,-534 710.5,-534 710.5,-498 986.5,-498 986.5,-534"/>
<text text-anchor="middle" x="848.5" y="-512.3" font-family="sans-serif" font-size="14.00">aws_iam_role_policy.lambda_kms_policy</text>
</g>
<!-- aws_iam_role_policy.lambda_kms_policy&#45;&gt;aws_iam_role.lambda_role -->
<g id="edge33" class="edge">
<title>aws_iam_role_policy.lambda_kms_policy&#45;&gt;aws_iam_role.lambda_role</title>
<path fill="none" stroke="black" d="M710.48,-532.84C685.04,-536.1 658.7,-539.58 634,-543 609.38,-546.41 582.88,-550.3 558.02,-554.03"/>
<polygon fill="black" stroke="black" points="557.21,-550.61 547.84,-555.56 558.25,-557.53 557.21,-550.61"/>
</g>
<!-- aws_kms_key.biosecurity -->
<g id="node40" class="node">
<title>aws_kms_key.biosecurity</title>
<polygon fill="none" stroke="black" points="544,-480 364,-480 364,-444 544,-444 544,-480"/>
<text text-anchor="middle" x="454" y="-458.3" font-family="sans-serif" font-size="14.00">aws_kms_key.biosecurity</text>
</g>
<!-- aws_iam_role_policy.lambda_kms_policy&#45;&gt;aws_kms_key.biosecurity -->
<g id="edge34" class="edge">
<title>aws_iam_role_policy.lambda_kms_policy&#45;&gt;aws_kms_key.biosecurity</title>
<path fill="none" stroke="black" d="M710.48,-499.16C685.04,-495.9 658.7,-492.42 634,-489 608.17,-485.42 580.27,-481.32 554.37,-477.42"/>
<polygon fill="black" stroke="black" points="554.58,-473.91 544.17,-475.88 553.53,-480.83 554.58,-473.91"/>
</g>
<!-- aws_iam_role_policy.lambda_rekognition_policy -->
<g id="node38" class="node">
<title>aws_iam_role_policy.lambda_rekognition_policy</title>
<polygon fill="none" stroke="black" points="1011.5,-588 685.5,-588 685.5,-552 1011.5,-552 1011.5,-588"/>
<text text-anchor="middle" x="848.5" y="-566.3" font-family="sans-serif" font-size="14.00">aws_iam_role_policy.lambda_rekognition_policy</text>
</g>
<!-- aws_iam_role_policy.lambda_rekognition_policy&#45;&gt;aws_iam_role.lambda_role -->
<g id="edge35" class="edge">
<title>aws_iam_role_policy.lambda_rekognition_policy&#45;&gt;aws_iam_role.lambda_role</title>
<path fill="none" stroke="black" d="M685.31,-570C642.2,-570 596.84,-570 557.88,-570"/>
<polygon fill="black" stroke="black" points="557.59,-566.5 547.59,-570 557.59,-573.5 557.59,-566.5"/>
</g>
<!-- aws_kms_alias.biosecurity -->
<g id="node39" class="node">
<title>aws_kms_alias.biosecurity</title>
<polygon fill="none" stroke="black" points="942.5,-480 754.5,-480 754.5,-444 942.5,-444 942.5,-480"/>
<text text-anchor="middle" x="848.5" y="-458.3" font-family="sans-serif" font-size="14.00">aws_kms_alias.biosecurity</text>
</g>
<!-- aws_kms_alias.biosecurity&#45;&gt;aws_kms_key.biosecurity -->
<g id="edge36" class="edge">
<title>aws_kms_alias.biosecurity&#45;&gt;aws_kms_key.biosecurity</title>
<path fill="none" stroke="black" d="M754.48,-462C694.25,-462 615.88,-462 554.41,-462"/>
<polygon fill="black" stroke="black" points="554.31,-458.5 544.31,-462 554.31,-465.5 554.31,-458.5"/>
</g>
<!-- aws_lambda_function.auditoria&#45;&gt;data.archive_file.lambda_auditoria_zip -->
<g id="edge37" class="edge">
<title>aws_lambda_function.auditoria&#45;&gt;data.archive_file.lambda_auditoria_zip</title>
<path fill="none" stroke="black" d="M737.91,-770C694.06,-770 642.99,-770 596.41,-770"/>
<polygon fill="black" stroke="black" points="596.23,-766.5 586.23,-770 596.23,-773.5 596.23,-766.5"/>
</g>
<!-- aws_lambda_function.auditoria&#45;&gt;aws_iam_role.lambda_role -->
<g id="edge38" class="edge">
<title>aws_lambda_function.auditoria&#45;&gt;aws_iam_role.lambda_role</title>
<path fill="none" stroke="black" d="M737.75,-757.26C700.79,-748.03 661.89,-732.17 634,-705 597.76,-669.69 636.11,-630.28 598,-597 586.45,-586.91 572.33,-580.09 557.52,-575.55"/>
<polygon fill="black" stroke="black" points="558.28,-572.13 547.71,-572.89 556.44,-578.89 558.28,-572.13"/>
</g>
<!-- aws_lambda_function.registrar_empleado&#45;&gt;data.archive_file.lambda_registrar_zip -->
<g id="edge39" class="edge">
<title>aws_lambda_function.registrar_empleado&#45;&gt;data.archive_file.lambda_registrar_zip</title>
<path fill="none" stroke="black" d="M703.85,-624C668.39,-624 630.46,-624 595.16,-624"/>
<polygon fill="black" stroke="black" points="594.79,-620.5 584.79,-624 594.79,-627.5 594.79,-620.5"/>
</g>
<!-- aws_lambda_function.registrar_empleado&#45;&gt;aws_dynamodb_table.empleados -->
<g id="edge40" class="edge">
<title>aws_lambda_function.registrar_empleado&#45;&gt;aws_dynamodb_table.empleados</title>
<path fill="none" stroke="black" d="M703.82,-618.56C678.17,-623.78 653.46,-633.67 634,-651 584.08,-695.44 646.54,-751.06 598,-797 592.51,-802.19 586.35,-806.54 579.76,-810.17"/>
<polygon fill="black" stroke="black" points="577.96,-807.15 570.52,-814.69 581.04,-813.44 577.96,-807.15"/>
</g>
<!-- aws_lambda_function.registrar_empleado&#45;&gt;aws_iam_role.lambda_role -->
<g id="edge41" class="edge">
<title>aws_lambda_function.registrar_empleado&#45;&gt;aws_iam_role.lambda_role</title>
<path fill="none" stroke="black" d="M703.88,-606.32C680.51,-603.3 656.57,-600.13 634,-597 609.38,-593.59 582.88,-589.7 558.02,-585.97"/>
<polygon fill="black" stroke="black" points="558.25,-582.47 547.84,-584.44 557.21,-589.39 558.25,-582.47"/>
</g>
<!-- aws_lambda_function.validacion_biometrica&#45;&gt;data.archive_file.lambda_zip -->
<g id="edge42" class="edge">
<title>aws_lambda_function.validacion_biometrica&#45;&gt;data.archive_file.lambda_zip</title>
<path fill="none" stroke="black" d="M701.3,-151.98C678.75,-149.07 655.74,-146.01 634,-143 611.36,-139.86 587.13,-136.33 564.05,-132.87"/>
<polygon fill="black" stroke="black" points="564.29,-129.37 553.89,-131.35 563.26,-136.29 564.29,-129.37"/>
</g>
<!-- aws_lambda_function.validacion_biometrica&#45;&gt;aws_iam_role.lambda_role -->
<g id="edge43" class="edge">
<title>aws_lambda_function.validacion_biometrica&#45;&gt;aws_iam_role.lambda_role</title>
<path fill="none" stroke="black" d="M707.68,-188.04C679.75,-197.81 653.15,-212.63 634,-235 559.85,-321.61 662.2,-394.78 598,-489 579.6,-516.01 549.03,-535.07 520.87,-547.88"/>
<polygon fill="black" stroke="black" points="519.21,-544.79 511.44,-551.99 522,-551.2 519.21,-544.79"/>
</g>
<!-- aws_rekognition_collection.coleccion -->
<g id="node47" class="node">
<title>aws_rekognition_collection.coleccion</title>
<polygon fill="none" stroke="black" points="584,-188 324,-188 324,-152 584,-152 584,-188"/>
<text text-anchor="middle" x="454" y="-166.3" font-family="sans-serif" font-size="14.00">aws_rekognition_collection.coleccion</text>
</g>
<!-- aws_lambda_function.validacion_biometrica&#45;&gt;aws_rekognition_collection.coleccion -->
<g id="edge44" class="edge">
<title>aws_lambda_function.validacion_biometrica&#45;&gt;aws_rekognition_collection.coleccion</title>
<path fill="none" stroke="black" d="M696.87,-170C663.17,-170 627.58,-170 594.36,-170"/>
<polygon fill="black" stroke="black" points="594.13,-166.5 584.13,-170 594.13,-173.5 594.13,-166.5"/>
</g>
<!-- aws_lambda_permission.apigw -->
<g id="node44" class="node">
<title>aws_lambda_permission.apigw</title>
<polygon fill="none" stroke="black" points="1376.5,-217 1158.5,-217 1158.5,-181 1376.5,-181 1376.5,-217"/>
<text text-anchor="middle" x="1267.5" y="-195.3" font-family="sans-serif" font-size="14.00">aws_lambda_permission.apigw</text>
</g>
<!-- aws_lambda_permission.apigw&#45;&gt;aws_api_gateway_rest_api.api -->
<g id="edge45" class="edge">
<title>aws_lambda_permission.apigw&#45;&gt;aws_api_gateway_rest_api.api</title>
<path fill="none" stroke="black" d="M1158.34,-210.02C980.11,-225.66 614.13,-247.22 310,-197 267.98,-190.06 222.38,-174.28 188.7,-160.93"/>
<polygon fill="black" stroke="black" points="189.68,-157.55 179.09,-157.06 187.06,-164.04 189.68,-157.55"/>
</g>
<!-- aws_lambda_permission.apigw&#45;&gt;aws_lambda_function.validacion_biometrica -->
<g id="edge46" class="edge">
<title>aws_lambda_permission.apigw&#45;&gt;aws_lambda_function.validacion_biometrica</title>
<path fill="none" stroke="black" d="M1158.3,-191.48C1113.26,-188.34 1060.02,-184.64 1010.55,-181.2"/>
<polygon fill="black" stroke="black" points="1010.6,-177.7 1000.38,-180.49 1010.11,-184.68 1010.6,-177.7"/>
</g>
<!-- aws_lambda_permission.apigw_auditoria -->
<g id="node45" class="node">
<title>aws_lambda_permission.apigw_auditoria</title>
<polygon fill="none" stroke="black" points="1409.5,-765 1125.5,-765 1125.5,-729 1409.5,-729 1409.5,-765"/>
<text text-anchor="middle" x="1267.5" y="-743.3" font-family="sans-serif" font-size="14.00">aws_lambda_permission.apigw_auditoria</text>
</g>
<!-- aws_lambda_permission.apigw_auditoria&#45;&gt;aws_api_gateway_rest_api.api_auditoria -->
<g id="edge47" class="edge">
<title>aws_lambda_permission.apigw_auditoria&#45;&gt;aws_api_gateway_rest_api.api_auditoria</title>
<path fill="none" stroke="black" d="M1125.28,-743.87C1104.4,-743.51 1083.14,-743.2 1063,-743 728.35,-739.71 641.57,-697.6 310,-743 272.28,-748.16 231.17,-759.42 198.61,-769.73"/>
<polygon fill="black" stroke="black" points="197.23,-766.5 188.79,-772.89 199.38,-773.16 197.23,-766.5"/>
</g>
<!-- aws_lambda_permission.apigw_auditoria&#45;&gt;aws_lambda_function.auditoria -->
<g id="edge48" class="edge">
<title>aws_lambda_permission.apigw_auditoria&#45;&gt;aws_lambda_function.auditoria</title>
<path fill="none" stroke="black" d="M1125.32,-754.79C1074.7,-757.58 1018.14,-760.7 969.48,-763.38"/>
<polygon fill="black" stroke="black" points="969.02,-759.9 959.22,-763.95 969.4,-766.89 969.02,-759.9"/>
</g>
<!-- aws_lambda_permission.apigw_rrhh -->
<g id="node46" class="node">
<title>aws_lambda_permission.apigw_rrhh</title>
<polygon fill="none" stroke="black" points="1394.5,-534 1140.5,-534 1140.5,-498 1394.5,-498 1394.5,-534"/>
<text text-anchor="middle" x="1267.5" y="-512.3" font-family="sans-serif" font-size="14.00">aws_lambda_permission.apigw_rrhh</text>
</g>
<!-- aws_lambda_permission.apigw_rrhh&#45;&gt;aws_api_gateway_rest_api.api_rrhh -->
<g id="edge49" class="edge">
<title>aws_lambda_permission.apigw_rrhh&#45;&gt;aws_api_gateway_rest_api.api_rrhh</title>
<path fill="none" stroke="black" d="M1232.78,-497.95C1193.37,-477.97 1125.55,-446.99 1063,-435 898.66,-403.5 464.32,-370.3 310,-435 237.87,-465.25 180.72,-542.13 154.18,-583.19"/>
<polygon fill="black" stroke="black" points="151.08,-581.54 148.69,-591.86 156.99,-585.28 151.08,-581.54"/>
</g>
<!-- aws_lambda_permission.apigw_rrhh&#45;&gt;aws_lambda_function.registrar_empleado -->
<g id="edge50" class="edge">
<title>aws_lambda_permission.apigw_rrhh&#45;&gt;aws_lambda_function.registrar_empleado</title>
<path fill="none" stroke="black" d="M1229.57,-534C1189.51,-552.74 1123.2,-581.48 1063,-597 1043.8,-601.95 1023.39,-606.01 1003.09,-609.33"/>
<polygon fill="black" stroke="black" points="1002.47,-605.88 993.14,-610.9 1003.56,-612.8 1002.47,-605.88"/>
</g>
<!-- aws_s3_bucket.frontend -->
<g id="node48" class="node">
<title>aws_s3_bucket.frontend</title>
<polygon fill="none" stroke="black" points="542,-334 366,-334 366,-298 542,-298 542,-334"/>
<text text-anchor="middle" x="454" y="-312.3" font-family="sans-serif" font-size="14.00">aws_s3_bucket.frontend</text>
</g>
<!-- aws_s3_bucket_policy.frontend_public -->
<g id="node49" class="node">
<title>aws_s3_bucket_policy.frontend_public</title>
<polygon fill="none" stroke="black" points="1400,-280 1135,-280 1135,-244 1400,-244 1400,-280"/>
<text text-anchor="middle" x="1267.5" y="-258.3" font-family="sans-serif" font-size="14.00">aws_s3_bucket_policy.frontend_public</text>
</g>
<!-- aws_s3_bucket_public_access_block.frontend -->
<g id="node50" class="node">
<title>aws_s3_bucket_public_access_block.frontend</title>
<polygon fill="none" stroke="black" points="1004,-280 693,-280 693,-244 1004,-244 1004,-280"/>
<text text-anchor="middle" x="848.5" y="-258.3" font-family="sans-serif" font-size="14.00">aws_s3_bucket_public_access_block.frontend</text>
</g>
<!-- aws_s3_bucket_policy.frontend_public&#45;&gt;aws_s3_bucket_public_access_block.frontend -->
<g id="edge51" class="edge">
<title>aws_s3_bucket_policy.frontend_public&#45;&gt;aws_s3_bucket_public_access_block.frontend</title>
<path fill="none" stroke="black" d="M1134.84,-262C1096.56,-262 1054.26,-262 1014.21,-262"/>
<polygon fill="black" stroke="black" points="1014.08,-258.5 1004.08,-262 1014.08,-265.5 1014.08,-258.5"/>
</g>
<!-- aws_s3_bucket_public_access_block.frontend&#45;&gt;aws_s3_bucket.frontend -->
<g id="edge52" class="edge">
<title>aws_s3_bucket_public_access_block.frontend&#45;&gt;aws_s3_bucket.frontend</title>
<path fill="none" stroke="black" d="M701.3,-280.02C678.75,-282.93 655.74,-285.99 634,-289 607.5,-292.67 578.83,-296.89 552.37,-300.88"/>
<polygon fill="black" stroke="black" points="551.71,-297.44 542.34,-302.4 552.75,-304.36 551.71,-297.44"/>
</g>
<!-- aws_s3_bucket_server_side_encryption_configuration.frontend -->
<g id="node51" class="node">
<title>aws_s3_bucket_server_side_encryption_configuration.frontend</title>
<polygon fill="none" stroke="black" points="1063,-388 634,-388 634,-352 1063,-352 1063,-388"/>
<text text-anchor="middle" x="848.5" y="-366.3" font-family="sans-serif" font-size="14.00">aws_s3_bucket_server_side_encryption_configuration.frontend</text>
</g>
<!-- aws_s3_bucket_server_side_encryption_configuration.frontend&#45;&gt;aws_kms_key.biosecurity -->
<g id="edge53" class="edge">
<title>aws_s3_bucket_server_side_encryption_configuration.frontend&#45;&gt;aws_kms_key.biosecurity</title>
<path fill="none" stroke="black" d="M770.42,-388.07C704.67,-403.48 610.19,-425.62 541.8,-441.66"/>
<polygon fill="black" stroke="black" points="540.84,-438.29 531.9,-443.97 542.44,-445.1 540.84,-438.29"/>
</g>
<!-- aws_s3_bucket_server_side_encryption_configuration.frontend&#45;&gt;aws_s3_bucket.frontend -->
<g id="edge54" class="edge">
<title>aws_s3_bucket_server_side_encryption_configuration.frontend&#45;&gt;aws_s3_bucket.frontend</title>
<path fill="none" stroke="black" d="M701.3,-351.98C678.75,-349.07 655.74,-346.01 634,-343 607.5,-339.33 578.83,-335.11 552.37,-331.12"/>
<polygon fill="black" stroke="black" points="552.75,-327.64 542.34,-329.6 551.71,-334.56 552.75,-327.64"/>
</g>
<!-- aws_s3_bucket_website_configuration.frontend&#45;&gt;aws_s3_bucket.frontend -->
<g id="edge55" class="edge">
<title>aws_s3_bucket_website_configuration.frontend&#45;&gt;aws_s3_bucket.frontend</title>
<path fill="none" stroke="black" d="M684.45,-316C639.6,-316 592.36,-316 552.48,-316"/>
<polygon fill="black" stroke="black" points="552.24,-312.5 542.24,-316 552.24,-319.5 552.24,-312.5"/>
</g>
</g>
</svg>
